<?xml version="1.0" encoding="UTF-8"?>
<svg version="1.1" xmlns="http://www.w3.org/2000/svg" viewBox="0 0 1544 524" width="512" height="512" preserveAspectRatio="xMidYMid meet">
<path d="M0 0 C31.4015625 -0.309375 31.4015625 -0.309375 63.4375 -0.625 C73.33834595 -0.76156006 73.33834595 -0.76156006 83.43920898 -0.90087891 C91.52355957 -0.94604492 91.52355957 -0.94604492 95.31288147 -0.95443726 C97.95108525 -0.96976489 100.58443974 -1.00105025 103.22169495 -1.05575562 C107.22478778 -1.13768284 111.2243424 -1.13905448 115.22827148 -1.13525391 C116.97842261 -1.18922553 116.97842261 -1.18922553 118.76393032 -1.24428749 C123.70910578 -1.18162878 126.78339757 -0.98946033 130.70012093 2.19600296 C132.97887863 4.70412833 135.0156705 7.25574381 137 10 C137.8353125 11.0003125 138.670625 12.000625 139.53125 13.03125 C140.50578125 14.25328125 140.50578125 14.25328125 141.5 15.5 C144.4081338 19.0947765 147.38541332 22.58260628 150.5 26 C153.52282421 29.31989486 156.42512161 32.69764112 159.25 36.1875 C163.41084769 41.32694428 167.71734489 46.32326152 172.05932617 51.30908203 C175.59160084 55.36783358 179.09427037 59.44890109 182.5625 63.5625 C186.33573019 68.03683484 190.12651924 72.49526005 193.9375 76.9375 C194.43427246 77.51677246 194.93104492 78.09604492 195.44287109 78.69287109 C197.99523989 81.66774646 200.5507747 84.63985771 203.109375 87.609375 C207.6983591 92.94120634 212.25877834 98.28329671 216.6875 103.75 C220.24267904 108.13151795 223.96769537 112.31710681 227.765625 116.48828125 C230.00134533 119.00151232 232.13377682 121.57311479 234.25 124.1875 C237.85470085 128.63852192 241.55370267 132.99198605 245.3125 137.3125 C245.86357422 137.94599365 246.41464844 138.5794873 246.98242188 139.23217773 C248.10162485 140.51831655 249.22092837 141.80436788 250.34033203 143.09033203 C257.33037505 151.13330298 264.25269958 159.22298214 270.96484375 167.5 C273.28679231 170.35229766 275.64545721 173.17454865 278 176 C278.33 117.92 278.66 59.84 279 0 C303.42 0 327.84 0 353 0 C353 61.38 353 122.76 353 186 C395.00786286 185.90943631 395.00786286 185.90943631 437.015625 185.79101562 C442.68554618 185.77296687 448.35546789 185.75510312 454.02539062 185.73754883 C454.73597217 185.73534114 455.44655371 185.73313345 456.17866802 185.73085886 C467.63371849 185.69553889 479.0887689 185.67065233 490.54385355 185.64965298 C502.30964402 185.62785056 514.07536415 185.59475818 525.84109473 185.55129844 C532.44560433 185.52722388 539.05005557 185.50864509 545.65460968 185.50238609 C551.87621864 185.49632521 558.09762895 185.47628861 564.31916428 185.44572449 C566.59749089 185.43696043 568.87584347 185.43321828 571.15418625 185.43499184 C591.37299046 186.19089854 591.37299046 186.19089854 608.79296875 177.5 C612.35929617 173.06805913 611.50176128 166.33563048 611 161 C608.70370948 156.05414349 605.83449164 153.45965364 601 151 C592.27613444 148.41834792 583.76968103 147.48901914 574.71191406 147.23217773 C573.45294815 147.18618439 572.19398224 147.14019104 570.89686584 147.09280396 C568.18429967 146.99381912 565.47163181 146.90268268 562.75858307 146.81796074 C558.44035876 146.68304105 554.1228911 146.52983343 549.80535889 146.37452698 C542.95101981 146.13007052 536.0963388 145.89749104 529.24141383 145.67011362 C517.02874154 145.26483776 504.81664431 144.84309192 492.60488105 144.41133076 C488.34184738 144.26111885 484.07866208 144.1173321 479.81523681 143.97870713 C466.89595908 143.55572693 453.99765675 143.03618008 441.10839844 142.03540039 C439.60951017 141.92126502 439.60951017 141.92126502 438.08034134 141.80482388 C420.3516491 140.3207577 404.43051962 135.34061123 392 122 C378.1090282 105.20509659 377.75166742 80.04103895 379.49609375 59.265625 C381.54102631 39.90393389 387.3765755 22.68806169 402.5625 9.78515625 C415.37455869 0.40196583 430.87977335 -0.44885943 446.16645813 -0.36076355 C447.87297226 -0.36207416 449.57948579 -0.36470526 451.28599614 -0.36853105 C455.94275005 -0.37519784 460.59929459 -0.36329617 465.25602186 -0.34819686 C470.28992318 -0.33518547 475.32381364 -0.33962956 480.35772705 -0.34190369 C489.06851793 -0.34347321 497.77924116 -0.33409767 506.49001503 -0.31719017 C519.08416681 -0.29276106 531.67828603 -0.2849909 544.27245893 -0.2812262 C564.70794362 -0.27466785 585.14339228 -0.25472342 605.57885742 -0.22631836 C625.42455872 -0.19876183 645.27025022 -0.17753605 665.1159668 -0.16479492 C666.34020657 -0.16400675 667.56444635 -0.16321858 668.8257843 -0.16240653 C674.96771928 -0.15849128 681.10965433 -0.15470019 687.25158942 -0.15097082 C738.16775117 -0.11989411 789.08387382 -0.0670751 840 0 C844.37593409 8.72839973 848.74952724 17.45796767 853.1203661 26.18892002 C855.15134095 30.24571468 857.18303531 34.30214518 859.21655273 38.35766602 C867.96151552 55.79935044 876.65975956 73.25132155 884.99731475 90.89251763 C887.22936541 95.58392744 889.55200993 100.2300661 891.88671875 104.87109375 C892.35946732 105.81517593 892.83221588 106.75925812 893.31929016 107.73194885 C894.77341806 110.63477784 896.23037303 113.53617553 897.6875 116.4375 C898.69745766 118.45237771 899.7072239 120.46735139 900.71679688 122.48242188 C903.14234223 127.32271476 905.57018452 132.16184941 908 137 C910.04090137 134.39238716 911.70792674 131.83306561 913.18554688 128.87182617 C913.79263489 127.66226509 913.79263489 127.66226509 914.4119873 126.42826843 C914.84321899 125.55861954 915.27445068 124.68897064 915.71875 123.79296875 C916.17672974 122.87655106 916.63470947 121.96013336 917.10656738 121.01594543 C918.08010128 119.06585572 919.05168997 117.11479388 920.02148438 115.1628418 C921.4630162 112.26192562 922.91059893 109.3641006 924.359375 106.46679688 C929.04084833 97.08555949 933.64981167 87.67525973 938.14453125 78.203125 C945.58745646 62.53890046 953.41459541 47.06469972 961.1875 31.5625 C966.405625 21.146875 971.62375 10.73125 977 0 C1017.59 0 1058.18 0 1100 0 C1100 78.54 1100 157.08 1100 238 C1075.91 238 1051.82 238 1027 238 C1026.67 181.9 1026.34 125.8 1026 68 C1021.71 76.25 1017.42 84.5 1013 93 C1007.3125 103.375 1007.3125 103.375 1005.69262695 106.31591797 C1000.54160213 115.71736603 995.69440213 125.27405956 990.81484985 134.8180542 C985.88440668 144.45671191 980.86412321 154.02493014 975.6171875 163.49609375 C970.89748755 172.07150486 966.45560193 180.78558149 962 189.5 C955.20603974 202.78542487 948.25398069 215.95843149 941 229 C940.1149175 230.59289578 939.22990681 232.18583147 938.3449707 233.77880859 C937.90329056 234.5738681 937.46161041 235.36892761 937.00654602 236.18807983 C936.67438583 236.78601349 936.34222565 237.38394714 936 238 C928.40158713 238.20285894 920.80387199 238.34294493 913.20336914 238.43945312 C910.61814277 238.47968254 908.03309838 238.53427474 905.44848633 238.60351562 C901.73212846 238.70058201 898.01817538 238.74593407 894.30078125 238.78125 C893.14540359 238.82254028 891.99002594 238.86383057 890.79963684 238.90637207 C882.97658758 238.91074597 882.97658758 238.91074597 880.22312927 236.34292603 C878.90750933 234.27881417 877.92841864 232.26165633 877 230 C876.26801392 228.67814697 876.26801392 228.67814697 875.52124023 227.32958984 C875.12106689 226.54793457 874.72089355 225.7662793 874.30859375 224.9609375 C873.84517578 224.06246094 873.38175781 223.16398438 872.90429688 222.23828125 C872.42025391 221.29339844 871.93621094 220.34851563 871.4375 219.375 C867.38423006 211.53028626 863.25484404 203.73722503 859 196 C854.90533048 188.54726111 850.91266938 181.04986139 847 173.5 C843.20632415 166.18257586 839.34449669 158.91104902 835.375 151.6875 C830.21846891 142.29897392 825.18971028 132.84628281 820.1875 123.375 C814.38039548 112.38167347 808.55814282 101.39705077 802.6875 90.4375 C801.78197388 88.74536377 801.78197388 88.74536377 800.8581543 87.01904297 C800.29008057 85.95959473 799.72200684 84.90014648 799.13671875 83.80859375 C798.64905029 82.89907959 798.16138184 81.98956543 797.65893555 81.05249023 C795.46722824 77.01968428 793.22904841 73.01228713 791 69 C790.67 124.77 790.34 180.54 790 238 C765.58 238 741.16 238 716 238 C716 176.62 716 115.24 716 52 C673.81440297 52.090563 673.81440297 52.090563 631.62890625 52.20898438 C625.93505929 52.22703314 620.24121179 52.2448969 614.54736328 52.26245117 C613.47699257 52.2657627 613.47699257 52.2657627 612.3849982 52.26914114 C600.88145714 52.30446154 589.37791614 52.32934786 577.87434104 52.35034702 C566.05883021 52.37214909 554.24338942 52.40524115 542.42793822 52.44870156 C535.79548296 52.4727766 529.16308583 52.49135508 522.53058624 52.49761391 C516.28271283 52.50367458 510.03503726 52.52371041 503.78723717 52.55427551 C501.49923516 52.56303991 499.21120727 52.56678165 496.92318916 52.56500816 C478.30610984 51.8201085 478.30610984 51.8201085 461.375 58.3125 C457.47236218 62.7286428 456.4774208 67.0231828 456.703125 72.9140625 C457.26386071 76.85396869 458.36884918 79.97283413 461 83 C469.33432739 87.95207466 478.59258241 88.16918757 488.01782227 88.44897461 C489.11994049 88.48492233 490.22205872 88.52087006 491.35757446 88.5579071 C493.75225302 88.63550507 496.14699192 88.71125756 498.54178047 88.78538322 C502.37091608 88.90403279 506.19985957 89.02774102 510.02879333 89.15272522 C518.88892442 89.44097048 527.74928202 89.72190019 536.60966492 90.00228119 C595.86143452 91.87770263 595.86143452 91.87770263 614.99339104 92.82873726 C616.47040452 92.90159937 617.94758196 92.97124024 619.42492867 93.03700066 C627.06606488 93.38347302 634.54412085 94.1214975 642.07641602 95.42163086 C642.77231559 95.54108094 643.46821516 95.66053102 644.1852026 95.78360081 C658.24794063 98.37780246 670.5816839 105.35097048 679 117 C687.45543313 131.36973876 689.23640065 148.06776787 689.25 164.375 C689.25101212 165.45630188 689.25101212 165.45630188 689.25204468 166.55944824 C689.22163769 186.94861226 686.40501573 205.61501193 671.97265625 221.1875 C659.27168632 233.31428503 641.04093309 238.08017389 623.82315254 238.15098095 C622.78686216 238.15720566 622.78686216 238.15720566 621.72963661 238.16355613 C619.42157102 238.17619816 617.11354294 238.18189082 614.80545044 238.18754578 C613.13115252 238.19514551 611.45685639 238.2031472 609.78256214 238.21151572 C605.18672443 238.23314663 600.59088425 238.24849097 595.99501824 238.26265609 C592.05201631 238.27558224 588.10903269 238.29212672 584.16604437 238.30863335 C546.80556159 238.46439346 509.44465349 238.53960414 472.08390999 238.60025311 C467.22407126 238.60828163 462.36423279 238.61645 457.50439453 238.62475586 C455.69258909 238.62784226 455.69258909 238.62784226 453.84418152 238.63099102 C434.26343141 238.6654351 414.68300783 238.7381153 395.10243095 238.82566347 C374.99812326 238.91480953 354.89398516 238.96617469 334.7894839 238.98155528 C323.50177969 238.99121562 312.21466489 239.01800493 300.92715836 239.08786583 C291.31793774 239.14731606 281.70938494 239.17308029 272.09998478 239.15452697 C267.19711822 239.14613033 262.29569289 239.15398871 257.39305878 239.205513 C252.90295254 239.25233417 248.41528943 239.25284136 243.92510591 239.21677623 C242.302648 239.21186158 240.68003108 239.22381565 239.0578561 239.2545106 C226.97921648 239.46940829 226.97921648 239.46940829 222.13811278 235.87528002 C219.83748443 233.3579403 217.91740357 230.81588854 216 228 C214.59606731 226.26047857 213.18074487 224.53003629 211.75 222.8125 C211.00878906 221.89726562 210.26757812 220.98203125 209.50390625 220.0390625 C204.99370452 214.5649019 200.3034171 209.24573694 195.64648438 203.89648438 C191.5682747 199.19904477 187.53227432 194.46516497 183.48828125 189.73828125 C181.98327951 187.98047082 180.47632297 186.22435554 178.96875 184.46875 C173.66945574 178.29632987 168.3910263 172.10738929 163.14208984 165.89208984 C157.79521893 159.56575635 152.39660168 153.28390421 147 147 C140.68911686 139.65148932 134.3919562 132.29259683 128.14208984 124.89208984 C122.79521893 118.56575635 117.39660168 112.28390421 112 106 C105.69622835 98.65977007 99.40264575 91.31203636 93.1640625 83.91625977 C90.69476768 80.99202421 88.21267996 78.07960017 85.71484375 75.1796875 C85.16828125 74.54482422 84.62171875 73.90996094 84.05859375 73.25585938 C83.00146474 72.02933499 81.94293626 70.80401498 80.8828125 69.58007812 C78.76274942 67.12000493 76.80411396 64.70617094 75 62 C74.67 120.08 74.34 178.16 74 238 C49.58 238 25.16 238 0 238 C0 159.46 0 80.92 0 0 Z " fill="#2175B8" transform="translate(370,56)"/>
<path d="M0 0 C0.83111298 0.00465271 1.66222595 0.00930542 2.51852417 0.01409912 C14.57551753 0.09313859 26.31561147 0.41851527 38.0625 3.375 C38.89942383 3.57899414 39.73634766 3.78298828 40.59863281 3.99316406 C52.60852583 6.98800853 63.9554638 10.91560932 75.0625 16.375 C76.73699219 17.19097656 76.73699219 17.19097656 78.4453125 18.0234375 C107.58616765 32.98006918 135.50007979 59.26018149 147.0625 90.375 C152.76441376 108.85385521 152.28308862 128.00202163 151.87060547 147.09667969 C151.36734716 172.11693941 156.6631966 189.90707797 174.0625 208.375 C176.72507482 211.12986361 179.43983835 213.82621589 182.19921875 216.484375 C184.7228753 219.04506634 185.02570785 220.05000271 185.4375 223.6875 C185.0625 227.375 185.0625 227.375 183 230.0625 C177.7120398 234.22536228 172.18449414 236.85963918 165.98046875 239.34765625 C163.7339318 240.35701276 163.7339318 240.35701276 162.0625 243.375 C161.4786804 246.2899255 161.4786804 246.2899255 162.0625 249.375 C164.395992 252.20911155 164.395992 252.20911155 167.0625 254.375 C167.3925 254.705 167.7225 255.035 168.0625 255.375 C167.95088318 260.95584078 166.35404356 263.83972491 162.828125 267.89453125 C158.6268721 271.41726322 154.58348657 271.6077472 149.25 271.5 C148.08855469 271.48195313 146.92710937 271.46390625 145.73046875 271.4453125 C144.40982422 271.41050781 144.40982422 271.41050781 143.0625 271.375 C144.61710938 271.53935547 144.61710938 271.53935547 146.203125 271.70703125 C147.57299264 271.86653639 148.94278037 272.02672884 150.3125 272.1875 C150.99441406 272.25775391 151.67632812 272.32800781 152.37890625 272.40039062 C156.38682127 272.88678808 159.23156406 273.39727479 162.0625 276.375 C162.93504084 279.50588183 163.41134356 281.25905838 163.0625 284.375 C160.83805268 287.7770959 158.55112819 289.98864283 155.375 292.5 C152.96540432 294.45372623 152.16947004 295.53291877 151.0625 298.375 C150.97330505 302.46310182 151.68364734 306.37215473 153.125 310.1875 C154.92453648 316.30592402 155.45761569 323.5966556 152.375 329.375 C148.59742337 334.27563996 145.12692662 336.94807609 139.0625 338.375 C136.37007761 338.5210627 133.76290178 338.4681173 131.0625 338.375 C131.36994141 337.52228516 131.36994141 337.52228516 131.68359375 336.65234375 C136.77402776 322.06301373 136.0070118 308.24664218 129.375 294.1875 C125.37753949 286.66110926 120.13658917 280.31410941 114.0625 274.375 C114.619375 273.83875 115.17625 273.3025 115.75 272.75 C128.58517605 259.5679273 134.63773779 242.99428249 134.48046875 224.66064453 C133.79995327 204.24092682 128.06638244 186.48364505 117.0625 169.375 C125.9725 168.385 125.9725 168.385 135.0625 167.375 C134.6153966 162.19788166 134.6153966 162.19788166 134.1340332 157.02392578 C133.99392941 155.14601862 134.02468585 153.25774652 134.0625 151.375 C135.5475 150.385 135.5475 150.385 137.0625 149.375 C133.33819643 148.68210631 129.85166254 148.26355404 126.0625 148.375 C127.15936631 145.00002674 128.32941534 141.67747071 129.625 138.375 C134.97400165 124.08398044 131.3721574 108.80717891 125.375 95.3125 C117.65337723 78.53216922 107.84839428 63.78094601 95.0625 50.375 C94.54961426 49.83294922 94.03672852 49.29089844 93.50830078 48.73242188 C72.65480097 27.20090327 42.35941792 15.13018506 13.0625 11.375 C12.19496094 11.24609375 11.32742187 11.1171875 10.43359375 10.984375 C-25.43800344 6.37144541 -63.72631222 17.04857058 -92.59912109 38.61621094 C-95.79860903 41.10370576 -98.87554536 43.72163416 -101.9375 46.375 C-102.91074219 47.138125 -103.88398437 47.90125 -104.88671875 48.6875 C-108.35027388 51.56550199 -110.94070461 54.96967387 -113.625 58.5625 C-118.55478924 65.11985949 -118.55478924 65.11985949 -121.9375 67.375 C-112.5061074 42.17970835 -87.91596592 23.49387286 -64.34033203 12.50146484 C-58.63160049 9.95930425 -52.84663344 7.83742567 -46.875 6 C-46.14579346 5.77344727 -45.41658691 5.54689453 -44.6652832 5.31347656 C-29.97032072 1.09634416 -15.21939455 -0.1528394 0 0 Z " fill="#2175B8" transform="translate(172.9375,55.625)"/>
<path d="M0 0 C2.1875 0 2.1875 0 5 1 C7.34229342 3.88038786 10 7.18819372 10 11 C10.99 11.33 11.98 11.66 13 12 C12.67 13.65 12.34 15.3 12 17 C13.65 17 15.3 17 17 17 C16.125 23.75 16.125 23.75 15 26 C16.65 26.33 18.3 26.66 20 27 C20.07427838 30.34252724 20.06546953 32.8035914 19 36 C20.98 36.495 20.98 36.495 23 37 C23.17835515 41.54805635 22.99785435 44.8794254 21 49 C22.98 49.33 24.96 49.66 27 50 C26.49202991 54.3177458 25.80317221 58.03302114 24 62 C26.31 62 28.62 62 31 62 C32.32575494 66.82181981 31.90062439 71.38832067 31.5625 76.3125 C31.51029297 77.14845703 31.45808594 77.98441406 31.40429688 78.84570312 C31.27532629 80.89750789 31.13844979 82.94881306 31 85 C33.64 85 36.28 85 39 85 C39 82.03 39 79.06 39 76 C41.475 75.505 41.475 75.505 44 75 C43.67 72.69 43.34 70.38 43 68 C43.99 67.67 44.98 67.34 46 67 C45.67 65.02 45.34 63.04 45 61 C45.66 60.67 46.32 60.34 47 60 C47.39171753 58.34608154 47.72057545 56.67654729 48 55 C48.33 54.01 48.66 53.02 49 52 C49.66 52 50.32 52 51 52 C51.185625 51.1028125 51.185625 51.1028125 51.375 50.1875 C52 48 52 48 54 45 C56.46800047 46.15173355 58.04783565 47.04783565 60 49 C60 49.99 60 50.98 60 52 C60.66 52 61.32 52 62 52 C63.61949011 54.57213134 64.04408751 55.67669159 63.625 58.75 C63.41875 59.4925 63.2125 60.235 63 61 C63.66 61 64.32 61 65 61 C64.938125 61.78375 64.87625 62.5675 64.8125 63.375 C64.874375 64.24125 64.93625 65.1075 65 66 C65.99 66.66 66.98 67.32 68 68 C67.67 69.98 67.34 71.96 67 74 C68.65 74.66 70.3 75.32 72 76 C71.67 81.94 71.34 87.88 71 94 C74.63 94 78.26 94 82 94 C82 92.35 82 90.7 82 89 C82.66 88.34 83.32 87.68 84 87 C87.125 87.375 87.125 87.375 90 88 C90 91.63 90 95.26 90 99 C93.63 99 97.26 99 101 99 C101 101.31 101 103.62 101 106 C35.66 106 -29.68 106 -97 106 C-97 103.69 -97 101.38 -97 99 C-93.7 99 -90.4 99 -87 99 C-87.04125 97.39125 -87.0825 95.7825 -87.125 94.125 C-87.1953125 91.3828125 -87.1953125 91.3828125 -87 89 C-86.01 88.01 -86.01 88.01 -85 87 C-81.875 87.375 -81.875 87.375 -79 88 C-78.67 89.98 -78.34 91.96 -78 94 C-74.37 94 -70.74 94 -67 94 C-67.33 88.06 -67.66 82.12 -68 76 C-65.525 75.505 -65.525 75.505 -63 75 C-63.66 73.02 -64.32 71.04 -65 69 C-64.505 68.608125 -64.01 68.21625 -63.5 67.8125 C-61.54406857 65.44908285 -61.75792027 63.98564997 -62 61 C-61.34 60.67 -60.68 60.34 -60 60 C-59.65782389 58.33512631 -59.3260082 56.66811497 -59 55 C-57.80859375 52.54296875 -57.80859375 52.54296875 -56.4375 50.1875 C-55.98246094 49.39730469 -55.52742188 48.60710937 -55.05859375 47.79296875 C-54.70925781 47.20128906 -54.35992187 46.60960937 -54 46 C-52.68 46 -51.36 46 -50 46 C-47 49.21428571 -47 49.21428571 -47 52 C-46.34 52 -45.68 52 -45 52 C-43.38050989 54.57213134 -42.95591249 55.67669159 -43.375 58.75 C-43.58125 59.4925 -43.7875 60.235 -44 61 C-43.34 61 -42.68 61 -42 61 C-42.061875 61.78375 -42.12375 62.5675 -42.1875 63.375 C-42.125625 64.24125 -42.06375 65.1075 -42 66 C-41.01 66.66 -40.02 67.32 -39 68 C-39.33 69.98 -39.66 71.96 -40 74 C-39.360625 74.103125 -38.72125 74.20625 -38.0625 74.3125 C-37.381875 74.539375 -36.70125 74.76625 -36 75 C-34.768606 78.69418201 -35.35567236 81.2056261 -36 85 C-33.03 85 -30.06 85 -27 85 C-27.03552979 84.3387915 -27.07105957 83.67758301 -27.10766602 82.99633789 C-27.26466247 80.01864712 -27.41368634 77.04061043 -27.5625 74.0625 C-27.64661133 72.50112305 -27.64661133 72.50112305 -27.73242188 70.90820312 C-27.80493164 69.42416992 -27.80493164 69.42416992 -27.87890625 67.91015625 C-27.94960327 66.53549194 -27.94960327 66.53549194 -28.02172852 65.13305664 C-28 63 -28 63 -27 62 C-24.66702567 61.95907063 -22.33294775 61.95758277 -20 62 C-21.08784968 58.75016865 -21.08784968 58.75016865 -23 56 C-23.04080783 54.00041636 -23.04254356 51.99954746 -23 50 C-21.02 49.67 -19.04 49.34 -17 49 C-17.495 47.9790625 -17.495 47.9790625 -18 46.9375 C-19.17307315 43.49159762 -19.14180493 40.61602578 -19 37 C-17.68 36.34 -16.36 35.68 -15 35 C-15.66 32.69 -16.32 30.38 -17 28 C-16.34 27.34 -15.68 26.68 -15 26 C-13.68 26 -12.36 26 -11 26 C-11.33 25.443125 -11.66 24.88625 -12 24.3125 C-13.1309601 21.69715478 -13.15662974 19.8193354 -13 17 C-11.35 17 -9.7 17 -8 17 C-8.495 14.525 -8.495 14.525 -9 12 C-8.01 11.67 -7.02 11.34 -6 11 C-5.31974363 9.00458132 -4.65509503 7.00382009 -4 5 C-1.875 2.125 -1.875 2.125 0 0 Z " fill="#2175B8" transform="translate(173,218)"/>
<path d="M0 0 C6.336339 4.53636093 10.63359656 9.7520344 12.44140625 17.390625 C9.08791298 17.56638933 5.73561646 17.67194937 2.37890625 17.765625 C0.96448242 17.84103516 0.96448242 17.84103516 -0.47851562 17.91796875 C-5.5443333 18.02387435 -8.66081409 17.85744347 -12.5546875 14.4296875 C-13.32897095 13.61685303 -13.32897095 13.61685303 -14.11889648 12.78759766 C-17.51275682 9.49445388 -22.34341736 10.05876996 -26.765625 10.1171875 C-31.12348802 10.54383143 -33.11189071 11.64733075 -36.55859375 14.390625 C-40.30072954 19.41296514 -41.8007766 24.10440052 -41.55859375 30.390625 C-40.56620362 36.71058323 -38.20852008 40.40358526 -33.1796875 44.296875 C-28.45134183 47.48708412 -23.07390401 46.8984285 -17.55859375 46.390625 C-12.33056262 44.71474046 -10.43152558 42.17884472 -7.55859375 37.390625 C-14.15859375 37.390625 -20.75859375 37.390625 -27.55859375 37.390625 C-27.55859375 32.770625 -27.55859375 28.150625 -27.55859375 23.390625 C-13.69859375 23.390625 0.16140625 23.390625 14.44140625 23.390625 C14.44140625 35.92762948 11.83324448 44.84963415 3.44140625 54.390625 C0.890625 56.33984375 0.890625 56.33984375 -1.87109375 58.078125 C-2.77472656 58.65949219 -3.67835938 59.24085938 -4.609375 59.83984375 C-13.69456423 64.61708895 -24.898135 64.79115157 -34.828125 62.703125 C-45.26127643 59.20108816 -52.87425986 52.71352466 -57.81640625 42.890625 C-61.5187649 33.98425174 -61.94969913 24.94497391 -59.12109375 15.703125 C-54.95741834 5.75092523 -47.87894408 -0.11122642 -38.2578125 -4.55078125 C-25.34635161 -9.61446562 -11.46979123 -7.21458624 0 0 Z " fill="#2175B8" transform="translate(957.55859375,352.609375)"/>
<path d="M0 0 C8.38987595 5.08966251 14.238716 11.51900824 17.3046875 20.91015625 C19.47061235 30.53513691 18.82230174 40.30940202 14 49 C8.18199187 57.47485751 0.82686198 62.34710573 -8.85546875 65.62890625 C-19.64854264 67.4965602 -30.55687658 66.8069782 -40 61 C-48.11111428 55.21285666 -54.11893753 47.99544958 -56 38 C-56.92371821 26.11280662 -55.62527839 16.88560095 -47.8125 7.625 C-35.50242792 -5.13050232 -15.77509372 -8.43601866 0 0 Z M-33.25 18.25 C-36.89171816 22.80931644 -38.32257123 27.2299464 -37.8125 33.0625 C-36.67412547 39.70088633 -33.78521971 43.56761248 -28.71875 47.80078125 C-24.12243887 51.00775288 -18.35246949 50.54523003 -13 50 C-7.09133668 47.15508803 -3.09677994 42.69209623 -0.625 36.625 C0.49942868 30.10331366 -0.33537172 24.61909669 -4 19 C-8.59056982 14.35503955 -12.12515755 11.87326899 -18.8125 11.75 C-25.16066672 11.85134954 -28.9226162 13.62094762 -33.25 18.25 Z " fill="#2175B8" transform="translate(1201,350)"/>
<path d="M0 0 C8.38987595 5.08966251 14.238716 11.51900824 17.3046875 20.91015625 C19.47061235 30.53513691 18.82230174 40.30940202 14 49 C8.18199187 57.47485751 0.82686198 62.34710573 -8.85546875 65.62890625 C-19.64854264 67.4965602 -30.55687658 66.8069782 -40 61 C-48.11111428 55.21285666 -54.11893753 47.99544958 -56 38 C-56.92371821 26.11280662 -55.62527839 16.88560095 -47.8125 7.625 C-35.50242792 -5.13050232 -15.77509372 -8.43601866 0 0 Z M-33.25 18.25 C-36.89171816 22.80931644 -38.32257123 27.2299464 -37.8125 33.0625 C-36.67412547 39.70088633 -33.78521971 43.56761248 -28.71875 47.80078125 C-24.12243887 51.00775288 -18.35246949 50.54523003 -13 50 C-7.09133668 47.15508803 -3.09677994 42.69209623 -0.625 36.625 C0.49942868 30.10331366 -0.33537172 24.61909669 -4 19 C-8.59056982 14.35503955 -12.12515755 11.87326899 -18.8125 11.75 C-25.16066672 11.85134954 -28.9226162 13.62094762 -33.25 18.25 Z " fill="#2175B8" transform="translate(873,350)"/>
<path d="M0 0 C8.38987595 5.08966251 14.238716 11.51900824 17.3046875 20.91015625 C19.47061235 30.53513691 18.82230174 40.30940202 14 49 C8.18199187 57.47485751 0.82686198 62.34710573 -8.85546875 65.62890625 C-19.64854264 67.4965602 -30.55687658 66.8069782 -40 61 C-48.11111428 55.21285666 -54.11893753 47.99544958 -56 38 C-56.92371821 26.11280662 -55.62527839 16.88560095 -47.8125 7.625 C-35.50242792 -5.13050232 -15.77509372 -8.43601866 0 0 Z M-33.25 18.25 C-36.89171816 22.80931644 -38.32257123 27.2299464 -37.8125 33.0625 C-36.67412547 39.70088633 -33.78521971 43.56761248 -28.71875 47.80078125 C-24.12243887 51.00775288 -18.35246949 50.54523003 -13 50 C-7.09133668 47.15508803 -3.09677994 42.69209623 -0.625 36.625 C0.49942868 30.10331366 -0.33537172 24.61909669 -4 19 C-8.59056982 14.35503955 -12.12515755 11.87326899 -18.8125 11.75 C-25.16066672 11.85134954 -28.9226162 13.62094762 -33.25 18.25 Z " fill="#2175B8" transform="translate(747,350)"/>
<path d="M0 0 C5.28 0 10.56 0 16 0 C19.41040887 3.59287238 20.89429153 5.74072605 23 10 C24.26858577 12.02821598 25.55569296 14.04494401 26.859375 16.05078125 C28.15905119 18.13627775 29.45590529 20.22353549 30.75 22.3125 C31.40871094 23.37017578 32.06742188 24.42785156 32.74609375 25.51757812 C35.53047044 29.99347777 38.28780668 34.4796778 41 39 C41.33 26.13 41.66 13.26 42 0 C47.61 0 53.22 0 59 0 C59 22.44 59 44.88 59 68 C53.72 68 48.44 68 43 68 C39.60069292 64.420553 38.12010272 62.24361506 36 58 C34.64897897 55.87383023 33.2769224 53.76091552 31.88671875 51.66015625 C30.48477688 49.46234074 29.08505907 47.26310506 27.6875 45.0625 C26.96570606 43.92890191 26.24370181 42.7954377 25.52148438 41.66210938 C24.20810518 39.6010572 22.89572594 37.53936719 21.5847168 35.47680664 C20.40879488 33.63891913 19.21029212 31.81543819 18 30 C18 42.54 18 55.08 18 68 C12.06 68 6.12 68 0 68 C0 45.56 0 23.12 0 0 Z " fill="#2175B8" transform="translate(622,347)"/>
<path d="M0 0 C5.56875 -0.061875 11.1375 -0.12375 16.875 -0.1875 C18.61120605 -0.21481201 20.34741211 -0.24212402 22.13623047 -0.27026367 C34.52127949 -0.38697088 43.50174756 0.50875709 52.796875 9.453125 C60.65353476 18.53564656 61.70616363 28.42362523 61.17919922 39.95654297 C60.554488 47.08029351 57.96380245 54.25132975 52.9765625 59.46875 C44.96322854 65.67670832 36.88150995 68.16673936 26.953125 68.09765625 C26.26911621 68.09664917 25.58510742 68.09564209 24.88037109 68.09460449 C22.33689689 68.0893913 19.79344668 68.07543006 17.25 68.0625 C8.71125 68.0315625 8.71125 68.0315625 0 68 C0 45.56 0 23.12 0 0 Z M18 16 C18 27.88 18 39.76 18 52 C30.53290527 52.95446378 30.53290527 52.95446378 35.625 50.375 C40.51207481 45.48792519 42.67872487 41.53919774 43.09375 34.66015625 C42.91103971 29.4757517 41.99719907 24.31590105 38.53125 20.296875 C31.40615045 14.2195842 29.35923362 16 18 16 Z " fill="#2175B8" transform="translate(1409,347)"/>
<path d="M0 0 C5.94 0 11.88 0 18 0 C18 8.25 18 16.5 18 25 C25.59 25 33.18 25 41 25 C41 16.75 41 8.5 41 0 C46.94 0 52.88 0 59 0 C59 22.44 59 44.88 59 68 C53.06 68 47.12 68 41 68 C41 59.09 41 50.18 41 41 C33.41 41 25.82 41 18 41 C18 49.91 18 58.82 18 68 C12.06 68 6.12 68 0 68 C0 45.56 0 23.12 0 0 Z " fill="#2175B8" transform="translate(551,347)"/>
<path d="M0 0 C2.64 0 5.28 0 8 0 C8 42.9 8 85.8 8 130 C2.06 130 -3.88 130 -10 130 C-16.00402391 130.03042668 -22.00525725 130.09808611 -28.00830078 130.20751953 C-29.77056537 130.23612879 -31.53296783 130.25713889 -33.29541016 130.27099609 C-35.8980959 130.29248222 -38.49932053 130.33901828 -41.1015625 130.390625 C-42.26735336 130.39246796 -42.26735336 130.39246796 -43.45669556 130.39434814 C-48.95323672 130.54039349 -53.46985541 131.77915954 -58 135 C-62.84812032 141.00279207 -62.44412259 147.59795676 -62 155 C-60.948125 155.391875 -59.89625 155.78375 -58.8125 156.1875 C-53.6868194 158.41380572 -50.83614422 161.4430418 -48.1875 166.375 C-46.44558203 171.6924338 -46.44558203 175.3075662 -48.1875 180.625 C-51.2036993 186.24137112 -54.95498404 189.87304994 -61 192 C-67.71400847 192.93707787 -72.78646932 192.44603033 -78.34375 188.4375 C-82.02149935 185.24549113 -84.82359478 182.09372748 -85.23828125 177.171875 C-85.48647181 165.7289838 -85.48647181 165.7289838 -81 161 C-78.02747576 158.25041508 -75.91797968 156.83838124 -72 156 C-72.04640625 155.03320312 -72.0928125 154.06640625 -72.140625 153.0703125 C-72.39107698 144.03615196 -72.29653094 136.21721614 -66.3046875 128.94140625 C-59.34852115 122.16829691 -50.86742683 120.65792115 -41.39620972 120.66011047 C-40.37600739 120.67559433 -39.35580505 120.69107819 -38.3046875 120.70703125 C-37.23123077 120.71127609 -36.15777405 120.71552094 -35.05178833 120.71989441 C-31.65925872 120.7365434 -28.26734681 120.77416976 -24.875 120.8125 C-22.55990448 120.82756464 -20.24479954 120.84124991 -17.9296875 120.85351562 C-12.2862514 120.88640158 -6.64316985 120.93646139 -1 121 C-1.00092179 120.38247392 -1.00184359 119.76494783 -1.00279331 119.12870884 C-1.02484889 104.12368851 -1.04141172 89.11867313 -1.05181217 74.11364079 C-1.05697505 66.85741151 -1.06401758 59.60119304 -1.07543945 52.3449707 C-1.08538656 46.02266144 -1.09185349 39.70035999 -1.09408849 33.37804312 C-1.09539556 30.0284325 -1.09848113 26.67884426 -1.10573006 23.3292408 C-1.1129362 19.59586355 -1.11399112 15.86253342 -1.11352539 12.12915039 C-1.11712067 11.01065704 -1.12071594 9.8921637 -1.12442017 8.73977661 C-1.1230455 7.72870346 -1.12167084 6.71763031 -1.12025452 5.67591858 C-1.12117631 4.79191911 -1.1220981 3.90791964 -1.12304783 2.9971323 C-1 1 -1 1 0 0 Z M-75 168 C-76.55024464 171.10048928 -76.28992015 173.57894218 -76 177 C-74.20437595 179.75329021 -72.94745078 181.52627461 -70 183 C-64.12362186 183.61782041 -64.12362186 183.61782041 -59.0625 180.9375 C-56.55511654 177.3663781 -55.84668088 175.36959504 -56 171 C-57.7269669 167.97272862 -59.83953329 165.58023335 -63 164 C-68.50023842 163.48110958 -71.06804501 164.06804501 -75 168 Z " fill="#2175B8" transform="translate(129,71)"/>
<path d="M0 0 C7.50568581 4.08522029 13.82749468 9.40408205 17.42578125 17.3203125 C17.82882628 19.6426196 18.17548372 21.9766174 18.42578125 24.3203125 C15.34316669 24.4949522 12.26182292 24.60125317 9.17578125 24.6953125 C8.30308594 24.74558594 7.43039062 24.79585938 6.53125 24.84765625 C4.03130505 24.9049069 1.8638888 24.88454486 -0.57421875 24.3203125 C-2.9921875 21.4453125 -2.9921875 21.4453125 -4.57421875 18.3203125 C-9.59378011 14.42759145 -13.59568578 13.67239135 -19.921875 13.94140625 C-24.14096193 14.54413295 -26.20853564 15.64150349 -29.57421875 18.3203125 C-33.29951445 23.32005146 -34.84440707 28.05194346 -34.57421875 34.3203125 C-33.3934904 40.04632254 -30.66740985 44.2271214 -26.57421875 48.3203125 C-22.11966974 51.12031474 -16.66967088 50.97567612 -11.57421875 50.3203125 C-7.66920837 48.40464703 -5.90965424 46.83048054 -3.51953125 43.1953125 C-1.8456893 41.15702256 -0.99163001 40.41319502 1.60913086 39.83447266 C4.17607705 39.7300735 6.67374223 39.79614468 9.23828125 39.9453125 C10.12193359 39.97238281 11.00558594 39.99945313 11.91601562 40.02734375 C14.08699239 40.09775381 16.25670654 40.20536644 18.42578125 40.3203125 C17.44422832 47.84555167 14.52473157 53.48000719 8.8984375 58.63671875 C-1.79076315 66.77730214 -11.39310069 68.48181696 -24.57421875 67.3203125 C-34.51886918 65.16847494 -42.4790975 59.86242796 -48.25390625 51.5 C-53.90139228 42.1766355 -55.10508092 33.07600498 -52.984375 22.33203125 C-50.35979412 13.78097742 -45.05952427 7.05824093 -37.42578125 2.3984375 C-25.73955112 -3.54371341 -12.37124826 -5.36900911 0 0 Z " fill="#2175B8" transform="translate(1120.57421875,348.6796875)"/>
<path d="M0 0 C7.50568581 4.08522029 13.82749468 9.40408205 17.42578125 17.3203125 C17.82882628 19.6426196 18.17548372 21.9766174 18.42578125 24.3203125 C15.34316669 24.4949522 12.26182292 24.60125317 9.17578125 24.6953125 C8.30308594 24.74558594 7.43039062 24.79585938 6.53125 24.84765625 C4.03130505 24.9049069 1.8638888 24.88454486 -0.57421875 24.3203125 C-2.9921875 21.4453125 -2.9921875 21.4453125 -4.57421875 18.3203125 C-9.59378011 14.42759145 -13.59568578 13.67239135 -19.921875 13.94140625 C-24.14096193 14.54413295 -26.20853564 15.64150349 -29.57421875 18.3203125 C-33.29951445 23.32005146 -34.84440707 28.05194346 -34.57421875 34.3203125 C-33.3934904 40.04632254 -30.66740985 44.2271214 -26.57421875 48.3203125 C-22.11966974 51.12031474 -16.66967088 50.97567612 -11.57421875 50.3203125 C-7.66920837 48.40464703 -5.90965424 46.83048054 -3.51953125 43.1953125 C-1.8456893 41.15702256 -0.99163001 40.41319502 1.60913086 39.83447266 C4.17607705 39.7300735 6.67374223 39.79614468 9.23828125 39.9453125 C10.12193359 39.97238281 11.00558594 39.99945313 11.91601562 40.02734375 C14.08699239 40.09775381 16.25670654 40.20536644 18.42578125 40.3203125 C17.44422832 47.84555167 14.52473157 53.48000719 8.8984375 58.63671875 C-1.79076315 66.77730214 -11.39310069 68.48181696 -24.57421875 67.3203125 C-34.51886918 65.16847494 -42.4790975 59.86242796 -48.25390625 51.5 C-53.90139228 42.1766355 -55.10508092 33.07600498 -52.984375 22.33203125 C-50.35979412 13.78097742 -45.05952427 7.05824093 -37.42578125 2.3984375 C-25.73955112 -3.54371341 -12.37124826 -5.36900911 0 0 Z " fill="#2175B8" transform="translate(523.57421875,348.6796875)"/>
<path d="M0 0 C0.74999362 0.00386247 1.49998724 0.00772493 2.27270794 0.01170444 C10.47229148 0.06823714 18.66800091 0.2689149 26.86450195 0.48999023 C28.49948228 0.53258932 30.13446673 0.57503029 31.76945496 0.61732483 C35.17544293 0.7059019 38.58138717 0.79596199 41.98730469 0.88720703 C46.26156208 1.00165645 50.53589325 1.11299358 54.81025887 1.2233181 C74.65965495 1.73664793 94.50342568 2.32455197 114.3449707 3.08764648 C114.0149707 6.05764648 113.6849707 9.02764648 113.3449707 12.08764648 C105.96992893 11.94388078 98.59493985 11.7975882 91.2199707 11.65014648 C90.10975555 11.62808136 88.99954041 11.60601624 87.85568237 11.58328247 C74.9112008 11.32477762 61.96888329 11.03688647 49.02734375 10.65844727 C41.46724564 10.43784636 33.90645361 10.25346848 26.3449707 10.08764648 C25.55832031 10.06984131 24.77166992 10.05203613 23.96118164 10.03369141 C19.19345876 9.9285634 14.42634517 9.84846976 9.65768433 9.80154419 C8.17982251 9.7842071 6.70202177 9.76006811 5.22439575 9.72848511 C-5.54260676 9.25025808 -5.54260676 9.25025808 -14.6550293 14.08764648 C-17.22917176 19.09506536 -18.06660876 22.98164591 -18.27099609 28.67529297 C-18.30069489 29.39807938 -18.33039368 30.12086578 -18.36099243 30.86555481 C-18.45495819 33.22966102 -18.52975071 35.59394749 -18.60424805 37.95874023 C-18.66603341 39.60787879 -18.72902475 41.25697256 -18.79316711 42.90602112 C-18.95803999 47.22760552 -19.10661012 51.54959975 -19.25170898 55.87188721 C-19.40293553 60.28987716 -19.56968849 64.70727858 -19.73510742 69.12475586 C-20.05688437 77.77855379 -20.36142828 86.43284701 -20.6550293 95.08764648 C-19.87023193 95.2271875 -19.08543457 95.36672852 -18.27685547 95.51049805 C-14.07970793 96.43442549 -11.55719996 99.02839958 -8.6550293 102.08764648 C-6.00623516 106.3487501 -6.11093133 111.2080377 -6.6550293 116.08764648 C-8.61936969 121.76240761 -12.28303591 125.40164979 -17.6550293 128.08764648 C-23.50978641 128.58093403 -28.84487211 128.94508936 -34.2175293 126.40014648 C-41.40253635 119.58360133 -41.40253635 119.58360133 -41.89331055 114.73217773 C-42.06428845 108.20802089 -41.69706161 104.29974078 -37.6550293 99.08764648 C-32.52682417 95.08764648 -32.52682417 95.08764648 -29.6550293 95.08764648 C-29.66445557 94.20923096 -29.67388184 93.33081543 -29.68359375 92.42578125 C-29.75918381 78.95496837 -29.38960231 65.50045411 -28.96533203 52.03710938 C-28.88119444 49.34651221 -28.80513267 46.65586351 -28.73583984 43.96484375 C-28.63461123 40.03520446 -28.51089178 36.10643619 -28.38549805 32.17749023 C-28.35723434 30.98155746 -28.32897064 29.78562469 -28.29985046 28.55345154 C-27.9678614 19.16660457 -26.65248564 11.9296038 -19.6550293 5.08764648 C-13.16369947 1.04026355 -7.60410581 -0.07355459 0 0 Z M-32.5300293 106.83764648 C-34.25097641 110.27954072 -33.69461673 112.44909049 -32.6550293 116.08764648 C-29.91171033 119.23439472 -28.28010544 119.98718782 -24.1550293 120.65014648 C-19.71836011 119.93711037 -18.3376084 118.63811883 -15.6550293 115.08764648 C-14.37187065 111.87974988 -14.41932476 110.66997535 -15.7175293 107.46264648 C-18.06351006 104.58692812 -20.23735458 103.46925967 -23.6550293 102.08764648 C-27.32486492 102.08764648 -29.93527652 104.41587722 -32.5300293 106.83764648 Z " fill="#2175B8" transform="translate(158.655029296875,352.912353515625)"/>
<path d="M0 0 C1.12691254 0.02736237 2.25382507 0.05472473 3.41488647 0.08291626 C7.12217288 0.17563625 10.82880326 0.28433614 14.53564453 0.39331055 C17.14467947 0.46197963 19.7537399 0.52968627 22.36282349 0.59648132 C27.83519942 0.73810844 33.30730174 0.88783394 38.77929688 1.04345703 C46.3930274 1.25998744 54.00707775 1.4625715 61.62127471 1.66192877 C86.51658342 2.31556955 111.40666524 3.04168803 136.29345703 3.9675293 C136.29345703 6.9375293 136.29345703 9.9075293 136.29345703 12.9675293 C123.09295538 13.07641486 109.91314025 12.77672347 96.71812439 12.41194153 C92.99040192 12.30895007 89.26261041 12.20887832 85.53479004 12.10949707 C76.95173224 11.88013937 68.36878901 11.64661733 59.78585052 11.41284943 C51.2724081 11.18102574 42.75891957 10.95104161 34.24534607 10.72407532 C30.60251661 10.62620559 26.9597686 10.52563222 23.3170166 10.42492676 C16.97621237 10.25241292 10.63521086 10.10045029 4.29345703 9.9675293 C3.41565582 9.94786102 2.53785461 9.92819275 1.63345337 9.90792847 C-0.71363054 9.86001358 -3.06029713 9.8273397 -5.40771484 9.80151367 C-7.29774231 9.77559143 -7.29774231 9.77559143 -9.22595215 9.74914551 C-14.75497501 10.0960547 -18.55432488 10.81531121 -22.51904297 14.7800293 C-25.78768271 19.54290436 -26.97086332 22.99823459 -26.83154297 28.7800293 C-26.81349609 29.75584961 -26.79544922 30.73166992 -26.77685547 31.73706055 C-26.75365234 32.47311523 -26.73044922 33.20916992 -26.70654297 33.9675293 C-25.63404297 34.5244043 -24.56154297 35.0812793 -23.45654297 35.6550293 C-18.98910992 38.22718772 -16.5256224 41.0836466 -14.45654297 45.8425293 C-12.96388429 52.06194045 -13.35939549 56.5713248 -16.46044922 62.1081543 C-19.87494267 67.20313511 -23.17308938 69.11218251 -29.01904297 70.4675293 C-35.90151982 71.46010419 -40.83674948 69.83913375 -46.58154297 66.0925293 C-50.78357328 61.89049898 -52.29572573 58.16066523 -52.77294922 52.30737305 C-52.60341552 46.33380319 -49.89171192 41.15269825 -45.70654297 36.9675293 C-42.43329912 35.03030335 -40.52140987 33.9675293 -36.70654297 33.9675293 C-36.75294922 33.22889648 -36.79935547 32.49026367 -36.84716797 31.72924805 C-37.1637058 22.83227404 -36.05738917 15.11199697 -30.33154297 8.0300293 C-29.03216797 7.0090918 -29.03216797 7.0090918 -27.70654297 5.9675293 C-26.81966797 5.2456543 -25.93279297 4.5237793 -25.01904297 3.7800293 C-17.23805477 -0.47749255 -8.65863956 -0.27976036 0 0 Z M-41.70654297 45.9675293 C-43.56976722 49.99209367 -44.01653127 51.9600673 -42.70654297 56.2175293 C-40.295397 59.53285501 -38.58700424 60.67404221 -34.70654297 61.9675293 C-30.6793738 61.9675293 -29.0848498 61.26176794 -25.89404297 58.7800293 C-23.42988052 55.61182044 -22.70654297 53.96622684 -22.70654297 49.9675293 C-24.44545036 45.81347274 -26.62331187 43.81470527 -30.70654297 41.9675293 C-35.44158615 41.11764975 -38.15749649 42.89168902 -41.70654297 45.9675293 Z " fill="#2175B8" transform="translate(136.70654296875,337.032470703125)"/>
<path d="M0 0 C12.87 0 25.74 0 39 0 C39 5.28 39 10.56 39 16 C31.74 16 24.48 16 17 16 C17 18.97 17 21.94 17 25 C23.93 25 30.86 25 38 25 C38 30.28 38 35.56 38 41 C31.07 41 24.14 41 17 41 C17 44.63 17 48.26 17 52 C24.26 52 31.52 52 39 52 C39 57.28 39 62.56 39 68 C26.13 68 13.26 68 0 68 C0 45.56 0 23.12 0 0 Z " fill="#2175B8" transform="translate(423,347)"/>
<path d="M0 0 C6.75 -0.125 6.75 -0.125 9 1 C9.00146656 1.59230219 9.00293312 2.18460438 9.00444412 2.79485512 C9.04152178 17.21760313 9.10054911 31.64013834 9.18390274 46.06269264 C9.22368495 53.03740441 9.2560815 60.01200348 9.27099609 66.98681641 C9.28540901 73.71726559 9.32052932 80.44731515 9.36830902 87.17762375 C9.38315224 89.74601583 9.39104269 92.31445777 9.39188385 94.88289261 C9.39424627 98.4791111 9.42127004 102.07435873 9.45410156 105.67041016 C9.4490712 106.73352417 9.44404083 107.79663818 9.43885803 108.89196777 C9.52135965 114.72871094 9.87319534 118.50909153 14 123 C18.18637976 126.50117233 22.40875392 126.44171044 27.64575195 126.43237305 C28.5047963 126.4425647 29.36384064 126.45275635 30.24891663 126.46325684 C33.07877133 126.4933694 35.90828742 126.50265013 38.73828125 126.51171875 C40.70412825 126.52856672 42.66996448 126.54671712 44.63578796 126.56611633 C49.80275102 126.61360956 54.96967042 126.64342339 60.13677979 126.66955566 C65.41223775 126.69936452 70.68754534 126.74589377 75.96289062 126.79101562 C86.30851508 126.8770411 96.65417048 126.94438984 107 127 C106.125 134.875 106.125 134.875 105 136 C102.33950139 136.1164439 99.70461484 136.16800837 97.04296875 136.17700195 C95.7915937 136.18685875 95.7915937 136.18685875 94.51493835 136.19691467 C91.73912474 136.21670884 88.96336555 136.22832796 86.1875 136.23828125 C84.76597626 136.24439454 84.76597626 136.24439454 83.31573486 136.25063133 C78.29333715 136.27152486 73.27096698 136.28580849 68.24853516 136.29516602 C63.07134275 136.30619661 57.8945842 136.34054818 52.71754456 136.38033772 C48.7299523 136.40655868 44.74246213 136.41486305 40.75479126 136.41844749 C38.84751478 136.42330462 36.94024259 136.43489357 35.03305054 136.45348549 C32.35242105 136.47797832 29.67289591 136.47689283 26.9921875 136.4699707 C25.82280891 136.48918579 25.82280891 136.48918579 24.62980652 136.50878906 C17.84532085 136.44538008 11.89313022 134.4294566 6.66015625 130.03515625 C5.86931641 129.05869141 5.86931641 129.05869141 5.0625 128.0625 C4.51722656 127.41410156 3.97195312 126.76570313 3.41015625 126.09765625 C0.74654039 122.13543543 -0.25054434 118.63274728 -0.24050903 113.88102722 C-0.24325836 112.87286957 -0.24600769 111.86471191 -0.24884033 110.82600403 C-0.24164978 109.73124252 -0.23445923 108.63648102 -0.22705078 107.50854492 C-0.22734283 106.34713989 -0.22763489 105.18573486 -0.22793579 103.98913574 C-0.2265432 100.15283724 -0.21098498 96.3167333 -0.1953125 92.48046875 C-0.19158212 89.81960216 -0.18863687 87.15874633 -0.18673706 84.49787903 C-0.18052675 78.21167787 -0.16412204 71.92554646 -0.14403808 65.63937598 C-0.12166509 58.4810022 -0.11068213 51.32262504 -0.10064721 44.16422498 C-0.07975539 29.44278102 -0.04458816 14.72139173 0 0 Z " fill="#2175B8" transform="translate(144,71)"/>
<path d="M0 0 C6.6 0 13.2 0 20 0 C23.33333333 8 26.66666667 16 30 24 C30.2673999 23.30849854 30.5347998 22.61699707 30.81030273 21.90454102 C32.01663873 18.78946212 33.227013 15.67596807 34.4375 12.5625 C34.85837891 11.47388672 35.27925781 10.38527344 35.71289062 9.26367188 C36.11572266 8.22919922 36.51855469 7.19472656 36.93359375 6.12890625 C37.30540771 5.17056885 37.67722168 4.21223145 38.06030273 3.22485352 C39 1 39 1 40 0 C41.4887186 -0.08669432 42.981445 -0.10703494 44.47265625 -0.09765625 C45.37177734 -0.09443359 46.27089844 -0.09121094 47.19726562 -0.08789062 C48.61555664 -0.07532227 48.61555664 -0.07532227 50.0625 -0.0625 C51.01189453 -0.05798828 51.96128906 -0.05347656 52.93945312 -0.04882812 C55.29303065 -0.0370011 57.64648477 -0.02052025 60 0 C59.12124469 1.98099654 58.24143683 3.96153052 57.35742188 5.94018555 C56.56360384 7.71948428 55.77469936 9.50098172 54.99023438 11.28442383 C52.82458489 16.15419728 50.5563297 20.89888654 47.98828125 25.5703125 C40.26769746 39.90353755 38.41510274 51.77250148 39 68 C33.06 68 27.12 68 21 68 C21.23976563 66.00646484 21.23976563 66.00646484 21.484375 63.97265625 C22.82467121 42.72364855 12.81176181 26.02914197 3.02348328 7.83886719 C2.62635635 7.09805908 2.22922943 6.35725098 1.82006836 5.59399414 C1.29164589 4.62122276 1.29164589 4.62122276 0.75254822 3.62879944 C0 2 0 2 0 0 Z " fill="#2175B8" transform="translate(975,347)"/>
<path d="M0 0 C1.46827744 0.00014351 1.46827744 0.00014351 2.96621704 0.00028992 C6.16640325 0.00402025 9.3662835 0.02297672 12.56640625 0.04296875 C14.7694488 0.04983035 16.97249249 0.05633815 19.17553711 0.0625 C38.50168055 0.13930771 57.81432188 0.57638573 77.12890625 1.23046875 C78.38432182 4.99671546 77.49952583 6.60235809 76.12890625 10.23046875 C72.54559448 10.26305343 68.9623409 10.27997052 65.37890625 10.29296875 C63.5985498 10.30009888 63.5985498 10.30009888 61.78222656 10.30737305 C52.84042782 10.31010387 43.91125185 10.14086288 34.97265625 9.90234375 C32.63249092 9.84351181 30.2923216 9.78483789 27.95214844 9.72631836 C24.42231233 9.6376677 20.89307681 9.54341744 17.3638916 9.43167114 C14.00974524 9.3257473 10.65555889 9.23939547 7.30078125 9.15625 C6.29333862 9.11888733 5.285896 9.08152466 4.2479248 9.04302979 C-1.88604297 8.91246178 -6.30470881 9.5847422 -11.87109375 12.23046875 C-17.87081894 18.07230643 -18.27529289 25.29690994 -18.87109375 33.23046875 C-17.86046875 33.39546875 -16.84984375 33.56046875 -15.80859375 33.73046875 C-10.694883 35.14689372 -7.91598933 39.10179678 -4.87109375 43.23046875 C-2.75911425 47.45442776 -3.37105897 52.64394287 -3.87109375 57.23046875 C-5.73395516 62.42643196 -8.95406399 66.13243917 -13.92578125 68.54296875 C-20.04053414 70.70400592 -25.63896412 70.74785098 -31.72265625 68.453125 C-36.49556714 65.7369048 -40.14227843 61.4169147 -41.87109375 56.23046875 C-42.6536213 49.72651023 -41.6976834 44.6017368 -37.87109375 39.23046875 C-35.18241244 36.40138633 -32.62008968 34.48013406 -28.87109375 33.23046875 C-28.773125 32.16828125 -28.67515625 31.10609375 -28.57421875 30.01171875 C-27.42086869 18.64355857 -25.961844 11.36371449 -16.96875 3.67578125 C-11.46587537 -0.1157711 -6.46705019 -0.04992734 0 0 Z M-30.87109375 45.23046875 C-33.23195497 48.77176059 -33.44378953 50.05797093 -32.87109375 54.23046875 C-30.86044119 57.56061206 -29.60840548 59.59999272 -25.93359375 60.93359375 C-22.37913448 61.55293135 -20.34423164 61.43618088 -16.99609375 59.98046875 C-13.9686606 57.48728851 -12.94920112 55.82185315 -12.43359375 51.91796875 C-12.99781382 47.1623996 -14.32085427 45.40302318 -17.87109375 42.23046875 C-23.60385099 40.35429365 -26.32546925 41.42482964 -30.87109375 45.23046875 Z " fill="#2175B8" transform="translate(191.87109375,371.76953125)"/>
<path d="M0 0 C4.455 0.99 4.455 0.99 9 2 C9.00364563 2.97417374 9.00729126 3.94834747 9.01104736 4.95204163 C9.048042 14.14764949 9.10586342 23.34292385 9.18390274 32.53827763 C9.22335596 37.2653597 9.25555499 41.99225609 9.27099609 46.71948242 C9.28617691 51.2843946 9.32064762 55.84879622 9.36830902 60.41348076 C9.38310815 62.15207918 9.39104017 63.8907505 9.39188385 65.6294117 C9.39425975 68.07127988 9.42138743 70.51174421 9.45410156 72.95336914 C9.4490712 73.66691055 9.44404083 74.38045197 9.43885803 75.11561584 C9.55108993 80.55539009 11.02557872 83.60108075 14 88 C18.02355362 91.36118227 22.26843281 91.69616548 27.3125 92.1875 C28.05306641 92.26935547 28.79363281 92.35121094 29.55664062 92.43554688 C31.36994923 92.63442588 33.18484969 92.81869827 35 93 C35.2475 91.92492187 35.495 90.84984375 35.75 89.7421875 C37.0348212 85.89575404 37.906141 84.59326251 41 82.125 C41.70125 81.55007812 42.4025 80.97515625 43.125 80.3828125 C48.10745363 76.70825294 54.04585049 77.61468874 60 78 C65.45655175 79.68657054 68.78941766 83.3985139 72 88 C73.78793044 93.36379133 73.69055197 98.88772338 71.9375 104.25 C68.20212577 109.55182149 64.48313251 112.9590482 58.0625 114.5 C51.75777447 115.43757679 47.31788469 114.26827653 41.6875 111.1875 C38.95170951 108.96069379 37.50211034 107.17112183 36 104 C36 103.34 36 102.68 36 102 C35.23816406 102.02320313 34.47632813 102.04640625 33.69140625 102.0703125 C22.86350897 102.25956414 14.39241492 101.41655272 6 94 C0.80727669 87.570914 -0.15243012 82.16010543 -0.11352539 74.01855469 C-0.11367142 73.2181778 -0.11381744 72.4178009 -0.1139679 71.59317017 C-0.1132723 68.95271069 -0.1054964 66.31232212 -0.09765625 63.671875 C-0.09579082 61.83913207 -0.09436751 60.00638863 -0.09336853 58.17364502 C-0.08955322 53.35350158 -0.07973133 48.53338835 -0.06866455 43.71325684 C-0.05842925 38.79321705 -0.05386637 33.87317237 -0.04882812 28.953125 C-0.03810819 19.30207007 -0.02104359 9.65103755 0 0 Z M45.1875 90.8125 C43.53709133 93.8527265 43.45271973 95.57949832 44 99 C46.48472834 102.99062431 47.96748964 104.68655935 52.5 106.0625 C57.32008768 105.97642701 59.47354934 104.52645066 62.8125 101.1875 C64.46290867 98.1472735 64.54728027 96.42050168 64 93 C61.51527166 89.00937569 60.03251036 87.31344065 55.5 85.9375 C50.67991232 86.02357299 48.52645066 87.47354934 45.1875 90.8125 Z " fill="#2175B8" transform="translate(162,73)"/>
<path d="M0 0 C0.06982278 8.30220797 0.12297378 16.60429116 0.15543652 24.90672112 C0.17102498 28.76279014 0.19213675 32.61865678 0.22631836 36.47460938 C0.25915757 40.20289191 0.27690416 43.93098101 0.28463173 47.65939713 C0.29013155 49.07461716 0.30087012 50.48982783 0.31719017 51.90496445 C0.43922512 62.9356894 0.09558724 73.06359939 -7.9453125 81.3046875 C-16.26070124 88.16567364 -25.82303916 87.45455408 -36 87 C-36.27070312 87.93328125 -36.54140625 88.8665625 -36.8203125 89.828125 C-38.53620062 94.44170498 -41.69449517 96.57777299 -45.8046875 99.11328125 C-51.15244801 101.27331975 -58.09558831 101.02133158 -63.48828125 99.125 C-68.02928312 96.52525505 -71.51229505 93.12328393 -73 88 C-73.72140676 82.47672946 -73.97177028 77.03633229 -71.3125 72 C-67.5441711 67.1113571 -64.3514304 64.54647882 -58.1796875 63.25390625 C-52.81015918 62.62842356 -48.47390326 63.22133413 -43.6875 65.75 C-39.36120478 69.3720146 -36.65491429 72.2695 -36 78 C-28.58319098 78.23545425 -21.71624633 78.10048706 -15.125 74.375 C-8.84609348 67.3573986 -9.53145345 58.53999371 -9.48828125 49.65625 C-9.47140927 48.27761258 -9.45325568 46.8989903 -9.43388367 45.52038574 C-9.38665025 41.91691829 -9.35666961 38.31351226 -9.33044434 34.70983887 C-9.30050307 31.02258172 -9.25401988 27.33553572 -9.20898438 23.6484375 C-9.12325526 16.43239707 -9.05577621 9.21634077 -9 2 C-3.375 0 -3.375 0 0 0 Z M-63 76 C-64.61320044 79.22640088 -64.58810373 82.5114756 -64 86 C-61.60161784 89.31541064 -59.92940514 90.68360676 -56.0625 92 C-52.18954927 92 -50.21402838 91.14268559 -47 89 C-44.36495743 85.93995056 -43.99117349 84.50311118 -44.0625 80.4375 C-45.11185954 76.58984836 -45.69416961 75.20388692 -49 73 C-54.82604285 71.086971 -58.25179822 71.94665702 -63 76 Z " fill="#2175B8" transform="translate(117,79)"/>
<path d="M0 0 C15.18 0 30.36 0 46 0 C46 5.28 46 10.56 46 16 C41.38 16 36.76 16 32 16 C32 33.16 32 50.32 32 68 C26.06 68 20.12 68 14 68 C14 50.84 14 33.68 14 16 C9.38 16 4.76 16 0 16 C0 10.72 0 5.44 0 0 Z " fill="#2175B8" transform="translate(1358,347)"/>
<path d="M0 0 C15.18 0 30.36 0 46 0 C46 5.28 46 10.56 46 16 C41.38 16 36.76 16 32 16 C32 33.16 32 50.32 32 68 C26.06 68 20.12 68 14 68 C14 50.84 14 33.68 14 16 C9.38 16 4.76 16 0 16 C0 10.72 0 5.44 0 0 Z " fill="#2175B8" transform="translate(371,347)"/>
<path d="M0 0 C5.94 0 11.88 0 18 0 C18 17.16 18 34.32 18 52 C24.93 52 31.86 52 39 52 C39 57.28 39 62.56 39 68 C26.13 68 13.26 68 0 68 C0 45.56 0 23.12 0 0 Z " fill="#2175B8" transform="translate(1318,347)"/>
<path d="M0 0 C5.94 0 11.88 0 18 0 C18 17.16 18 34.32 18 52 C24.93 52 31.86 52 39 52 C39 57.28 39 62.56 39 68 C26.13 68 13.26 68 0 68 C0 45.56 0 23.12 0 0 Z " fill="#2175B8" transform="translate(775,347)"/>
<path d="M0 0 C5.61 0 11.22 0 17 0 C17.13516012 4.04278926 17.23421548 8.08104554 17.3125 12.125 C17.35439453 13.26710938 17.39628906 14.40921875 17.43945312 15.5859375 C17.57772204 25.09883887 17.57772204 25.09883887 14.875 28.78125 C11.46679979 31.41149147 9.93207638 31.65486218 5.6875 31.375 C4.61886719 31.32085937 3.55023437 31.26671875 2.44921875 31.2109375 C1.64097656 31.14132812 0.83273437 31.07171875 0 31 C0 28.03 0 25.06 0 22 C2.31 21.34 4.62 20.68 7 20 C7.33 18.68 7.66 17.36 8 16 C5.36 16 2.72 16 0 16 C0 10.72 0 5.44 0 0 Z " fill="#2175B8" transform="translate(1258,399)"/>
<path d="M0 0 C5.61 0 11.22 0 17 0 C17 5.28 17 10.56 17 16 C11.39 16 5.78 16 0 16 C0 10.72 0 5.44 0 0 Z " fill="#2175B8" transform="translate(1229,399)"/>
<path d="M0 0 C0.66 0.66 1.32 1.32 2 2 C1.01 1.67 0.02 1.34 -1 1 C-0.67 0.67 -0.34 0.34 0 0 Z " fill="#2175B8" transform="translate(264,328)"/>
</svg>
